<mxfile host="app.diagrams.net" modified="2024-03-26T16:56:18.742Z" agent="Mozilla/5.0 (Windows NT 10.0; Win64; x64) AppleWebKit/537.36 (KHTML, like Gecko) Chrome/122.0.0.0 Safari/537.36" etag="WHYzUH2smAC3ICjUzsEE" version="24.0.7" type="github">
  <diagram name="Page-1" id="c7488fd3-1785-93aa-aadb-54a6760d102a">
    <mxGraphModel dx="1671" dy="861" grid="1" gridSize="10" guides="1" tooltips="1" connect="1" arrows="1" fold="1" page="1" pageScale="1" pageWidth="1100" pageHeight="850" background="none" math="0" shadow="0">
      <root>
        <mxCell id="0" />
        <mxCell id="1" parent="0" />
        <mxCell id="rIsWFIAk9piFeKCYhs_7-6" value="Cross-Functional Flowchart" style="shape=table;childLayout=tableLayout;startSize=40;collapsible=0;recursiveResize=0;expand=0;fontSize=10;fontStyle=1;rounded=1;shadow=0;strokeColor=default;strokeWidth=1;align=center;verticalAlign=middle;fontFamily=Verdana;fontColor=default;labelBackgroundColor=none;fillColor=default;" parent="1" vertex="1">
          <mxGeometry x="50" y="40" width="1630" height="940" as="geometry" />
        </mxCell>
        <mxCell id="rIsWFIAk9piFeKCYhs_7-7" value="Admin" style="shape=tableRow;horizontal=0;swimlaneHead=0;swimlaneBody=0;top=0;left=0;strokeColor=inherit;bottom=0;right=0;dropTarget=0;fontStyle=0;fillColor=none;points=[[0,0.5],[1,0.5]];portConstraint=eastwest;startSize=40;collapsible=0;recursiveResize=0;expand=0;fontSize=10;rounded=1;shadow=0;strokeWidth=1;align=center;verticalAlign=middle;fontFamily=Verdana;fontColor=default;labelBackgroundColor=none;" parent="rIsWFIAk9piFeKCYhs_7-6" vertex="1">
          <mxGeometry y="40" width="1630" height="190" as="geometry" />
        </mxCell>
        <mxCell id="rIsWFIAk9piFeKCYhs_7-8" value="Cadastro do Serviço" style="swimlane;swimlaneHead=0;swimlaneBody=0;fontStyle=1;strokeColor=inherit;connectable=0;fillColor=none;startSize=40;collapsible=0;recursiveResize=0;expand=0;fontSize=10;rounded=1;shadow=0;strokeWidth=1;align=center;verticalAlign=middle;fontFamily=Verdana;fontColor=default;labelBackgroundColor=none;" parent="rIsWFIAk9piFeKCYhs_7-7" vertex="1">
          <mxGeometry x="40" width="960" height="190" as="geometry">
            <mxRectangle width="960" height="190" as="alternateBounds" />
          </mxGeometry>
        </mxCell>
        <mxCell id="rIsWFIAk9piFeKCYhs_7-24" style="edgeStyle=orthogonalEdgeStyle;rounded=0;orthogonalLoop=1;jettySize=auto;html=1;fontFamily=Verdana;fontSize=10;fontColor=default;fontStyle=1;labelBackgroundColor=none;" parent="rIsWFIAk9piFeKCYhs_7-8" source="rIsWFIAk9piFeKCYhs_7-19" target="rIsWFIAk9piFeKCYhs_7-22" edge="1">
          <mxGeometry relative="1" as="geometry" />
        </mxCell>
        <mxCell id="rIsWFIAk9piFeKCYhs_7-19" value="" style="points=[[0.145,0.145,0],[0.5,0,0],[0.855,0.145,0],[1,0.5,0],[0.855,0.855,0],[0.5,1,0],[0.145,0.855,0],[0,0.5,0]];shape=mxgraph.bpmn.event;html=1;verticalLabelPosition=bottom;labelBackgroundColor=#ffffff;verticalAlign=top;align=center;perimeter=ellipsePerimeter;outlineConnect=0;aspect=fixed;outline=standard;symbol=general;rounded=1;shadow=0;strokeColor=default;strokeWidth=1;fontFamily=Verdana;fontSize=10;fontColor=default;fillColor=default;" parent="rIsWFIAk9piFeKCYhs_7-8" vertex="1">
          <mxGeometry x="20" y="90" width="50" height="50" as="geometry" />
        </mxCell>
        <mxCell id="rIsWFIAk9piFeKCYhs_7-22" value="Cadastrar Serviço" style="points=[[0.25,0,0],[0.5,0,0],[0.75,0,0],[1,0.25,0],[1,0.5,0],[1,0.75,0],[0.75,1,0],[0.5,1,0],[0.25,1,0],[0,0.75,0],[0,0.5,0],[0,0.25,0]];shape=mxgraph.bpmn.task;whiteSpace=wrap;rectStyle=rounded;size=10;html=1;container=1;expand=0;collapsible=0;bpmnShapeType=call;taskMarker=user;rounded=1;shadow=0;strokeColor=default;strokeWidth=1;align=center;verticalAlign=middle;fontFamily=Verdana;fontSize=10;fontColor=default;labelBackgroundColor=none;fillColor=default;" parent="rIsWFIAk9piFeKCYhs_7-8" vertex="1">
          <mxGeometry x="210" y="75" width="120" height="80" as="geometry" />
        </mxCell>
        <mxCell id="rIsWFIAk9piFeKCYhs_7-9" value="Phase 2" style="swimlane;swimlaneHead=0;swimlaneBody=0;fontStyle=1;strokeColor=inherit;connectable=0;fillColor=none;startSize=40;collapsible=0;recursiveResize=0;expand=0;fontSize=10;rounded=1;shadow=0;strokeWidth=1;align=center;verticalAlign=middle;fontFamily=Verdana;fontColor=default;labelBackgroundColor=none;" parent="rIsWFIAk9piFeKCYhs_7-7" vertex="1">
          <mxGeometry x="1000" width="359" height="190" as="geometry">
            <mxRectangle width="359" height="190" as="alternateBounds" />
          </mxGeometry>
        </mxCell>
        <mxCell id="rIsWFIAk9piFeKCYhs_7-10" value="Phase 3" style="swimlane;swimlaneHead=0;swimlaneBody=0;fontStyle=1;strokeColor=inherit;connectable=0;fillColor=none;startSize=40;collapsible=0;recursiveResize=0;expand=0;fontSize=10;rounded=1;shadow=0;strokeWidth=1;align=center;verticalAlign=middle;fontFamily=Verdana;fontColor=default;labelBackgroundColor=none;" parent="rIsWFIAk9piFeKCYhs_7-7" vertex="1">
          <mxGeometry x="1359" width="271" height="190" as="geometry">
            <mxRectangle width="271" height="190" as="alternateBounds" />
          </mxGeometry>
        </mxCell>
        <mxCell id="rIsWFIAk9piFeKCYhs_7-11" value="JCA.Common.Cancellation.Notice.Api" style="shape=tableRow;horizontal=0;swimlaneHead=0;swimlaneBody=0;top=0;left=0;strokeColor=inherit;bottom=0;right=0;dropTarget=0;fontStyle=0;fillColor=none;points=[[0,0.5],[1,0.5]];portConstraint=eastwest;startSize=40;collapsible=0;recursiveResize=0;expand=0;fontSize=10;rounded=1;shadow=0;strokeWidth=1;align=center;verticalAlign=middle;fontFamily=Verdana;fontColor=default;labelBackgroundColor=none;" parent="rIsWFIAk9piFeKCYhs_7-6" vertex="1">
          <mxGeometry y="230" width="1630" height="290" as="geometry" />
        </mxCell>
        <mxCell id="rIsWFIAk9piFeKCYhs_7-12" value="" style="swimlane;swimlaneHead=0;swimlaneBody=0;fontStyle=1;connectable=0;strokeColor=inherit;fillColor=none;startSize=0;collapsible=0;recursiveResize=0;expand=0;fontSize=10;rounded=1;shadow=0;strokeWidth=1;align=center;verticalAlign=middle;fontFamily=Verdana;fontColor=default;labelBackgroundColor=none;" parent="rIsWFIAk9piFeKCYhs_7-11" vertex="1">
          <mxGeometry x="40" width="960" height="290" as="geometry">
            <mxRectangle width="960" height="290" as="alternateBounds" />
          </mxGeometry>
        </mxCell>
        <mxCell id="rIsWFIAk9piFeKCYhs_7-28" value="" style="edgeStyle=orthogonalEdgeStyle;rounded=0;orthogonalLoop=1;jettySize=auto;html=1;fontFamily=Verdana;fontSize=8;fontColor=default;fontStyle=1;labelBackgroundColor=none;" parent="rIsWFIAk9piFeKCYhs_7-12" source="rIsWFIAk9piFeKCYhs_7-25" target="rIsWFIAk9piFeKCYhs_7-44" edge="1">
          <mxGeometry relative="1" as="geometry">
            <mxPoint x="400" y="79.99999999999989" as="targetPoint" />
          </mxGeometry>
        </mxCell>
        <mxCell id="rIsWFIAk9piFeKCYhs_7-25" value="Handler" style="points=[[0.25,0,0],[0.5,0,0],[0.75,0,0],[1,0.25,0],[1,0.5,0],[1,0.75,0],[0.75,1,0],[0.5,1,0],[0.25,1,0],[0,0.75,0],[0,0.5,0],[0,0.25,0]];shape=mxgraph.bpmn.task;whiteSpace=wrap;rectStyle=rounded;size=10;html=1;container=1;expand=0;collapsible=0;taskMarker=service;rounded=1;shadow=0;strokeColor=default;strokeWidth=1;align=center;verticalAlign=middle;fontFamily=Verdana;fontSize=8;fontColor=default;labelBackgroundColor=none;fillColor=default;" parent="rIsWFIAk9piFeKCYhs_7-12" vertex="1">
          <mxGeometry x="210" y="40" width="120" height="80" as="geometry" />
        </mxCell>
        <mxCell id="rIsWFIAk9piFeKCYhs_7-33" style="edgeStyle=orthogonalEdgeStyle;rounded=0;orthogonalLoop=1;jettySize=auto;html=1;fontFamily=Verdana;fontSize=8;fontColor=default;fontStyle=1;labelBackgroundColor=none;" parent="rIsWFIAk9piFeKCYhs_7-12" source="rIsWFIAk9piFeKCYhs_7-30" target="rIsWFIAk9piFeKCYhs_7-32" edge="1">
          <mxGeometry relative="1" as="geometry" />
        </mxCell>
        <mxCell id="rIsWFIAk9piFeKCYhs_7-30" value="Gravar Serviço" style="points=[[0.25,0,0],[0.5,0,0],[0.75,0,0],[1,0.25,0],[1,0.5,0],[1,0.75,0],[0.75,1,0],[0.5,1,0],[0.25,1,0],[0,0.75,0],[0,0.5,0],[0,0.25,0]];shape=mxgraph.bpmn.task;whiteSpace=wrap;rectStyle=rounded;size=10;html=1;container=1;expand=0;collapsible=0;taskMarker=abstract;bpmnShapeType=transaction;isLoopSub=1;rounded=1;shadow=0;strokeColor=default;strokeWidth=1;align=center;verticalAlign=middle;fontFamily=Verdana;fontSize=8;fontColor=default;labelBackgroundColor=none;fillColor=default;" parent="rIsWFIAk9piFeKCYhs_7-12" vertex="1">
          <mxGeometry x="210" y="190" width="120" height="80" as="geometry" />
        </mxCell>
        <mxCell id="rIsWFIAk9piFeKCYhs_7-31" style="edgeStyle=orthogonalEdgeStyle;rounded=0;orthogonalLoop=1;jettySize=auto;html=1;entryX=0.5;entryY=0;entryDx=0;entryDy=0;entryPerimeter=0;fontFamily=Verdana;fontSize=8;fontColor=default;fontStyle=1;labelBackgroundColor=none;" parent="rIsWFIAk9piFeKCYhs_7-12" source="rIsWFIAk9piFeKCYhs_7-25" target="rIsWFIAk9piFeKCYhs_7-30" edge="1">
          <mxGeometry relative="1" as="geometry" />
        </mxCell>
        <mxCell id="rIsWFIAk9piFeKCYhs_7-32" value="" style="shape=datastore;html=1;labelPosition=center;verticalLabelPosition=bottom;align=center;verticalAlign=top;rounded=1;shadow=0;strokeColor=default;strokeWidth=1;fontFamily=Verdana;fontSize=8;fontColor=default;labelBackgroundColor=none;fillColor=default;" parent="rIsWFIAk9piFeKCYhs_7-12" vertex="1">
          <mxGeometry x="40" y="180" width="100" height="100" as="geometry" />
        </mxCell>
        <mxCell id="rIsWFIAk9piFeKCYhs_7-43" style="edgeStyle=orthogonalEdgeStyle;rounded=0;orthogonalLoop=1;jettySize=auto;html=1;entryX=0.5;entryY=0;entryDx=0;entryDy=0;fontFamily=Verdana;fontSize=8;fontColor=default;fontStyle=1;labelBackgroundColor=none;" parent="rIsWFIAk9piFeKCYhs_7-12" source="rIsWFIAk9piFeKCYhs_7-41" target="rIsWFIAk9piFeKCYhs_7-32" edge="1">
          <mxGeometry relative="1" as="geometry" />
        </mxCell>
        <mxCell id="rIsWFIAk9piFeKCYhs_7-41" value="&lt;span style=&quot;&quot;&gt;1. Nº do Serviço&lt;/span&gt;&lt;br style=&quot;&quot;&gt;&lt;span style=&quot;&quot;&gt;2. Rota (Origem/Destino)&lt;/span&gt;&lt;br style=&quot;&quot;&gt;&lt;span style=&quot;&quot;&gt;3. Data da Viagem&lt;/span&gt;&lt;br style=&quot;&quot;&gt;&lt;span style=&quot;&quot;&gt;4. Motivo&lt;/span&gt;" style="points=[[0.25,0,0],[0.5,0,0],[0.75,0,0],[1,0.25,0],[1,0.5,0],[1,0.75,0],[0.75,1,0],[0.5,1,0],[0.25,1,0],[0,0.75,0],[0,0.5,0],[0,0.25,0]];shape=mxgraph.bpmn.task;whiteSpace=wrap;rectStyle=rounded;size=10;html=1;container=1;expand=0;collapsible=0;taskMarker=abstract;rounded=1;shadow=0;strokeColor=default;strokeWidth=1;align=left;verticalAlign=middle;fontFamily=Verdana;fontSize=8;fontColor=default;labelBackgroundColor=none;fillColor=default;" parent="rIsWFIAk9piFeKCYhs_7-12" vertex="1">
          <mxGeometry x="30" y="40" width="120" height="80" as="geometry" />
        </mxCell>
        <mxCell id="rIsWFIAk9piFeKCYhs_7-47" style="edgeStyle=orthogonalEdgeStyle;rounded=0;orthogonalLoop=1;jettySize=auto;html=1;fontFamily=Verdana;fontSize=8;fontColor=default;fontStyle=1;labelBackgroundColor=none;" parent="rIsWFIAk9piFeKCYhs_7-12" source="rIsWFIAk9piFeKCYhs_7-44" target="rIsWFIAk9piFeKCYhs_7-45" edge="1">
          <mxGeometry relative="1" as="geometry" />
        </mxCell>
        <mxCell id="rIsWFIAk9piFeKCYhs_7-44" value="Publicar Mensagem" style="points=[[0.25,0,0],[0.5,0,0],[0.75,0,0],[1,0.25,0],[1,0.5,0],[1,0.75,0],[0.75,1,0],[0.5,1,0],[0.25,1,0],[0,0.75,0],[0,0.5,0],[0,0.25,0]];shape=mxgraph.bpmn.task;whiteSpace=wrap;rectStyle=rounded;size=10;html=1;container=1;expand=0;collapsible=0;taskMarker=send;rounded=1;shadow=0;strokeColor=default;strokeWidth=1;align=center;verticalAlign=middle;fontFamily=Verdana;fontSize=8;fontColor=default;labelBackgroundColor=none;fillColor=default;" parent="rIsWFIAk9piFeKCYhs_7-12" vertex="1">
          <mxGeometry x="410" y="40" width="120" height="80" as="geometry" />
        </mxCell>
        <object placeholders="1" c4Type="Container name" c4Container="Container" c4Technology="e.g. Apache Kafka, etc." c4Description="Description of message bus type container role/responsibility." label="&lt;font style=&quot;font-size: 16px&quot;&gt;&lt;b&gt;%c4Type%&lt;/b&gt;&lt;/font&gt;&lt;div&gt;[%c4Container%:&amp;nbsp;%c4Technology%]&lt;/div&gt;&lt;br&gt;&lt;div&gt;&lt;font style=&quot;font-size: 11px&quot;&gt;&lt;font color=&quot;#E6E6E6&quot;&gt;%c4Description%&lt;/font&gt;&lt;/div&gt;" id="rIsWFIAk9piFeKCYhs_7-45">
          <mxCell style="shape=cylinder3;size=15;direction=south;whiteSpace=wrap;html=1;boundedLbl=1;rounded=0;labelBackgroundColor=none;fillColor=#23A2D9;fontSize=12;fontColor=#ffffff;align=center;strokeColor=#0E7DAD;metaEdit=1;points=[[0.5,0,0],[1,0.25,0],[1,0.5,0],[1,0.75,0],[0.5,1,0],[0,0.75,0],[0,0.5,0],[0,0.25,0]];resizable=0;shadow=0;strokeWidth=1;verticalAlign=middle;fontFamily=Verdana;" parent="rIsWFIAk9piFeKCYhs_7-12" vertex="1">
            <mxGeometry x="590" y="20" width="240" height="120" as="geometry" />
          </mxCell>
        </object>
        <mxCell id="rIsWFIAk9piFeKCYhs_7-13" value="" style="swimlane;swimlaneHead=0;swimlaneBody=0;fontStyle=1;connectable=0;strokeColor=inherit;fillColor=none;startSize=0;collapsible=0;recursiveResize=0;expand=0;fontSize=10;rounded=1;shadow=0;strokeWidth=1;align=center;verticalAlign=middle;fontFamily=Verdana;fontColor=default;labelBackgroundColor=none;" parent="rIsWFIAk9piFeKCYhs_7-11" vertex="1">
          <mxGeometry x="1000" width="359" height="290" as="geometry">
            <mxRectangle width="359" height="290" as="alternateBounds" />
          </mxGeometry>
        </mxCell>
        <mxCell id="rIsWFIAk9piFeKCYhs_7-14" value="" style="swimlane;swimlaneHead=0;swimlaneBody=0;fontStyle=1;connectable=0;strokeColor=inherit;fillColor=none;startSize=0;collapsible=0;recursiveResize=0;expand=0;fontSize=10;rounded=1;shadow=0;strokeWidth=1;align=center;verticalAlign=middle;fontFamily=Verdana;fontColor=default;labelBackgroundColor=none;" parent="rIsWFIAk9piFeKCYhs_7-11" vertex="1">
          <mxGeometry x="1359" width="271" height="290" as="geometry">
            <mxRectangle width="271" height="290" as="alternateBounds" />
          </mxGeometry>
        </mxCell>
        <mxCell id="rIsWFIAk9piFeKCYhs_7-15" value="Actor 3" style="shape=tableRow;horizontal=0;swimlaneHead=0;swimlaneBody=0;top=0;left=0;strokeColor=inherit;bottom=0;right=0;dropTarget=0;fontStyle=0;fillColor=none;points=[[0,0.5],[1,0.5]];portConstraint=eastwest;startSize=40;collapsible=0;recursiveResize=0;expand=0;fontSize=10;rounded=1;shadow=0;strokeWidth=1;align=center;verticalAlign=middle;fontFamily=Verdana;fontColor=default;labelBackgroundColor=none;" parent="rIsWFIAk9piFeKCYhs_7-6" vertex="1">
          <mxGeometry y="520" width="1630" height="420" as="geometry" />
        </mxCell>
        <mxCell id="rIsWFIAk9piFeKCYhs_7-16" value="" style="swimlane;swimlaneHead=0;swimlaneBody=0;fontStyle=1;connectable=0;strokeColor=inherit;fillColor=none;startSize=0;collapsible=0;recursiveResize=0;expand=0;fontSize=10;rounded=1;shadow=0;strokeWidth=1;align=center;verticalAlign=middle;fontFamily=Verdana;fontColor=default;labelBackgroundColor=none;" parent="rIsWFIAk9piFeKCYhs_7-15" vertex="1">
          <mxGeometry x="40" width="960" height="420" as="geometry">
            <mxRectangle width="960" height="420" as="alternateBounds" />
          </mxGeometry>
        </mxCell>
        <mxCell id="241wLx_xNC55v7J6Il0q-1" value="Consume Mensagem" style="points=[[0.25,0,0],[0.5,0,0],[0.75,0,0],[1,0.25,0],[1,0.5,0],[1,0.75,0],[0.75,1,0],[0.5,1,0],[0.25,1,0],[0,0.75,0],[0,0.5,0],[0,0.25,0]];shape=mxgraph.bpmn.task;whiteSpace=wrap;rectStyle=rounded;size=10;html=1;container=1;expand=0;collapsible=0;taskMarker=service;rounded=1;shadow=0;strokeColor=default;strokeWidth=1;align=center;verticalAlign=middle;fontFamily=Verdana;fontSize=8;fontColor=default;labelBackgroundColor=none;fillColor=default;" vertex="1" parent="rIsWFIAk9piFeKCYhs_7-16">
          <mxGeometry x="630" y="70" width="120" height="80" as="geometry" />
        </mxCell>
        <mxCell id="241wLx_xNC55v7J6Il0q-7" style="edgeStyle=orthogonalEdgeStyle;rounded=0;orthogonalLoop=1;jettySize=auto;html=1;fontFamily=Verdana;fontSize=8;fontColor=default;fontStyle=1;labelBackgroundColor=none;" edge="1" parent="rIsWFIAk9piFeKCYhs_7-16" source="241wLx_xNC55v7J6Il0q-3" target="241wLx_xNC55v7J6Il0q-4">
          <mxGeometry relative="1" as="geometry" />
        </mxCell>
        <mxCell id="241wLx_xNC55v7J6Il0q-3" value="" style="points=[[0.25,0.25,0],[0.5,0,0],[0.75,0.25,0],[1,0.5,0],[0.75,0.75,0],[0.5,1,0],[0.25,0.75,0],[0,0.5,0]];shape=mxgraph.bpmn.gateway2;html=1;verticalLabelPosition=bottom;labelBackgroundColor=#ffffff;verticalAlign=top;align=center;perimeter=rhombusPerimeter;outlineConnect=0;outline=none;symbol=none;gwType=exclusive;rounded=1;shadow=0;strokeColor=default;strokeWidth=1;fontFamily=Verdana;fontSize=8;fontColor=default;fillColor=default;" vertex="1" parent="rIsWFIAk9piFeKCYhs_7-16">
          <mxGeometry x="530" y="85" width="50" height="50" as="geometry" />
        </mxCell>
        <object placeholders="1" c4Type="Container name" c4Container="Container" c4Technology="e.g. Apache Kafka, etc." c4Description="Description of message bus type container role/responsibility." label="&lt;font style=&quot;font-size: 16px&quot;&gt;&lt;b&gt;%c4Type%&lt;/b&gt;&lt;/font&gt;&lt;div&gt;[%c4Container%:&amp;nbsp;%c4Technology%]&lt;/div&gt;&lt;br&gt;&lt;div&gt;&lt;font style=&quot;font-size: 11px&quot;&gt;&lt;font color=&quot;#E6E6E6&quot;&gt;%c4Description%&lt;/font&gt;&lt;/div&gt;" id="241wLx_xNC55v7J6Il0q-4">
          <mxCell style="shape=cylinder3;size=15;direction=south;whiteSpace=wrap;html=1;boundedLbl=1;rounded=0;labelBackgroundColor=none;fillColor=#23A2D9;fontSize=12;fontColor=#ffffff;align=center;strokeColor=#0E7DAD;metaEdit=1;points=[[0.5,0,0],[1,0.25,0],[1,0.5,0],[1,0.75,0],[0.5,1,0],[0,0.75,0],[0,0.5,0],[0,0.25,0]];resizable=0;shadow=0;strokeWidth=1;verticalAlign=middle;fontFamily=Verdana;" vertex="1" parent="rIsWFIAk9piFeKCYhs_7-16">
            <mxGeometry x="220" y="50" width="240" height="120" as="geometry" />
          </mxCell>
        </object>
        <mxCell id="241wLx_xNC55v7J6Il0q-6" style="edgeStyle=orthogonalEdgeStyle;rounded=0;orthogonalLoop=1;jettySize=auto;html=1;entryX=1;entryY=0.5;entryDx=0;entryDy=0;entryPerimeter=0;fontFamily=Verdana;fontSize=8;fontColor=default;fontStyle=1;labelBackgroundColor=none;" edge="1" parent="rIsWFIAk9piFeKCYhs_7-16" source="241wLx_xNC55v7J6Il0q-1" target="241wLx_xNC55v7J6Il0q-3">
          <mxGeometry relative="1" as="geometry" />
        </mxCell>
        <mxCell id="241wLx_xNC55v7J6Il0q-12" style="edgeStyle=orthogonalEdgeStyle;rounded=0;orthogonalLoop=1;jettySize=auto;html=1;fontFamily=Verdana;fontSize=8;fontColor=default;fontStyle=1;labelBackgroundColor=none;" edge="1" parent="rIsWFIAk9piFeKCYhs_7-16" source="241wLx_xNC55v7J6Il0q-9" target="241wLx_xNC55v7J6Il0q-11">
          <mxGeometry relative="1" as="geometry" />
        </mxCell>
        <mxCell id="241wLx_xNC55v7J6Il0q-9" value="" style="points=[[0.25,0,0],[0.5,0,0],[0.75,0,0],[1,0.25,0],[1,0.5,0],[1,0.75,0],[0.75,1,0],[0.5,1,0],[0.25,1,0],[0,0.75,0],[0,0.5,0],[0,0.25,0]];shape=mxgraph.bpmn.task;whiteSpace=wrap;rectStyle=rounded;size=10;html=1;container=1;expand=0;collapsible=0;taskMarker=abstract;bpmnShapeType=transaction;isLoopSub=1;rounded=1;shadow=0;strokeColor=default;strokeWidth=1;align=center;verticalAlign=middle;fontFamily=Verdana;fontSize=8;fontColor=default;labelBackgroundColor=none;fillColor=default;" vertex="1" parent="rIsWFIAk9piFeKCYhs_7-16">
          <mxGeometry x="495" y="190" width="120" height="80" as="geometry" />
        </mxCell>
        <mxCell id="241wLx_xNC55v7J6Il0q-10" style="edgeStyle=orthogonalEdgeStyle;rounded=0;orthogonalLoop=1;jettySize=auto;html=1;entryX=0.5;entryY=0;entryDx=0;entryDy=0;entryPerimeter=0;fontFamily=Verdana;fontSize=8;fontColor=default;fontStyle=1;labelBackgroundColor=none;" edge="1" parent="rIsWFIAk9piFeKCYhs_7-16" source="241wLx_xNC55v7J6Il0q-3" target="241wLx_xNC55v7J6Il0q-9">
          <mxGeometry relative="1" as="geometry" />
        </mxCell>
        <mxCell id="241wLx_xNC55v7J6Il0q-11" value="" style="shape=datastore;html=1;labelPosition=center;verticalLabelPosition=bottom;align=center;verticalAlign=top;rounded=1;shadow=0;strokeColor=default;strokeWidth=1;fontFamily=Verdana;fontSize=8;fontColor=default;labelBackgroundColor=none;fillColor=default;" vertex="1" parent="rIsWFIAk9piFeKCYhs_7-16">
          <mxGeometry x="720" y="180" width="100" height="100" as="geometry" />
        </mxCell>
        <mxCell id="241wLx_xNC55v7J6Il0q-22" value="" style="points=[[0.25,0,0],[0.5,0,0],[0.75,0,0],[1,0.25,0],[1,0.5,0],[1,0.75,0],[0.75,1,0],[0.5,1,0],[0.25,1,0],[0,0.75,0],[0,0.5,0],[0,0.25,0]];shape=mxgraph.bpmn.task;whiteSpace=wrap;rectStyle=rounded;size=10;html=1;container=1;expand=0;collapsible=0;taskMarker=send;rounded=1;shadow=0;strokeColor=default;strokeWidth=1;align=center;verticalAlign=middle;fontFamily=Verdana;fontSize=8;fontColor=default;labelBackgroundColor=none;fillColor=default;" vertex="1" parent="rIsWFIAk9piFeKCYhs_7-16">
          <mxGeometry x="495" y="320" width="120" height="80" as="geometry" />
        </mxCell>
        <mxCell id="241wLx_xNC55v7J6Il0q-23" style="edgeStyle=orthogonalEdgeStyle;rounded=0;orthogonalLoop=1;jettySize=auto;html=1;entryX=0.5;entryY=0;entryDx=0;entryDy=0;entryPerimeter=0;fontFamily=Verdana;fontSize=8;fontColor=default;fontStyle=1;labelBackgroundColor=none;" edge="1" parent="rIsWFIAk9piFeKCYhs_7-16" source="241wLx_xNC55v7J6Il0q-9" target="241wLx_xNC55v7J6Il0q-22">
          <mxGeometry relative="1" as="geometry" />
        </mxCell>
        <mxCell id="rIsWFIAk9piFeKCYhs_7-17" value="" style="swimlane;swimlaneHead=0;swimlaneBody=0;fontStyle=1;connectable=0;strokeColor=inherit;fillColor=none;startSize=0;collapsible=0;recursiveResize=0;expand=0;fontSize=10;rounded=1;shadow=0;strokeWidth=1;align=center;verticalAlign=middle;fontFamily=Verdana;fontColor=default;labelBackgroundColor=none;" parent="rIsWFIAk9piFeKCYhs_7-15" vertex="1">
          <mxGeometry x="1000" width="359" height="420" as="geometry">
            <mxRectangle width="359" height="420" as="alternateBounds" />
          </mxGeometry>
        </mxCell>
        <mxCell id="rIsWFIAk9piFeKCYhs_7-18" value="" style="swimlane;swimlaneHead=0;swimlaneBody=0;fontStyle=1;connectable=0;strokeColor=inherit;fillColor=none;startSize=0;collapsible=0;recursiveResize=0;expand=0;fontSize=10;rounded=1;shadow=0;strokeWidth=1;align=center;verticalAlign=middle;fontFamily=Verdana;fontColor=default;labelBackgroundColor=none;" parent="rIsWFIAk9piFeKCYhs_7-15" vertex="1">
          <mxGeometry x="1359" width="271" height="420" as="geometry">
            <mxRectangle width="271" height="420" as="alternateBounds" />
          </mxGeometry>
        </mxCell>
        <mxCell id="rIsWFIAk9piFeKCYhs_7-26" style="edgeStyle=orthogonalEdgeStyle;rounded=0;orthogonalLoop=1;jettySize=auto;html=1;fontFamily=Verdana;fontSize=8;fontColor=default;fontStyle=1;labelBackgroundColor=none;" parent="rIsWFIAk9piFeKCYhs_7-6" source="rIsWFIAk9piFeKCYhs_7-22" target="rIsWFIAk9piFeKCYhs_7-25" edge="1">
          <mxGeometry relative="1" as="geometry" />
        </mxCell>
        <mxCell id="241wLx_xNC55v7J6Il0q-2" style="edgeStyle=orthogonalEdgeStyle;rounded=0;orthogonalLoop=1;jettySize=auto;html=1;entryX=0.986;entryY=0.582;entryDx=0;entryDy=0;entryPerimeter=0;fontFamily=Verdana;fontSize=8;fontColor=default;fontStyle=1;labelBackgroundColor=none;" edge="1" parent="rIsWFIAk9piFeKCYhs_7-6" source="241wLx_xNC55v7J6Il0q-1" target="rIsWFIAk9piFeKCYhs_7-45">
          <mxGeometry relative="1" as="geometry" />
        </mxCell>
        <mxCell id="241wLx_xNC55v7J6Il0q-8" style="edgeStyle=orthogonalEdgeStyle;rounded=0;orthogonalLoop=1;jettySize=auto;html=1;entryX=0.5;entryY=1;entryDx=0;entryDy=0;entryPerimeter=0;fontFamily=Verdana;fontSize=8;fontColor=default;fontStyle=1;labelBackgroundColor=none;" edge="1" parent="rIsWFIAk9piFeKCYhs_7-6" source="241wLx_xNC55v7J6Il0q-4" target="rIsWFIAk9piFeKCYhs_7-44">
          <mxGeometry relative="1" as="geometry" />
        </mxCell>
      </root>
    </mxGraphModel>
  </diagram>
</mxfile>
